Coordinates
version=1
nRows=24
nColumns=22
inDegrees=yes

Units are S.I. units (second, meters, Newtons, ...)
If the header above contains a line with 'inDegrees', this indicates whether rotational values are in degrees (yes) or radians (no).

endheader
time	pelvis_tilt	pelvis_list	pelvis_rotation	pelvis_tx	pelvis_ty	pelvis_tz	hip_flexion_r	hip_adduction_r	hip_rotation_r	knee_angle_r	ankle_angle_r	subtalar_angle_r	hip_flexion_l	hip_adduction_l	hip_rotation_l	knee_angle_l	ankle_angle_l	subtalar_angle_l	lumbar_extension	lumbar_bending	lumbar_rotation
      0.01000000	      5.22938787	     -3.23948001	      5.72423533	      1.13215071	      0.94423511	     -0.07653582	     -7.35117311	      4.31385622	     -8.46635622	     -6.65112970	      9.85446839	      0.13194435	     -4.52627138	     -4.26161959	    -12.26881416	    -14.00221516	     21.42310179	     -6.25113529	    -12.41871646	      3.43784645	     -8.83230766
      0.02000000	      5.22088485	     -3.24273067	      5.74332600	      1.13216475	      0.94422062	     -0.07652880	     -7.34818957	      4.32114427	     -8.47004182	     -6.63770525	      9.87242207	      0.13033152	     -4.51114532	     -4.26881807	    -12.24588529	    -14.00794132	     21.41245003	     -6.25419472	    -12.40016556	      3.44652892	     -8.88004084
      0.03000000	      5.22228809	     -3.24155522	      5.74348643	      1.13217708	      0.94422366	     -0.07649483	     -7.34805140	      4.32045456	     -8.47030069	     -6.63870173	      9.87249662	      0.13017620	     -4.51313336	     -4.27030193	    -12.24443228	    -14.00947213	     21.41289341	     -6.25415710	    -12.39554530	      3.44591131	     -8.88124986
      0.04000000	      5.22387972	     -3.24036029	      5.74308278	      1.13220250	      0.94422766	     -0.07645204	     -7.34905682	      4.32112343	     -8.46998498	     -6.64173737	      9.87317532	      0.12997990	     -4.51646659	     -4.27180026	    -12.24302052	    -14.00982539	     21.41396350	     -6.25399721	    -12.38648811	      3.44431011	     -8.88795092
      0.05000000	      5.21972512	     -3.23910014	      5.74645557	      1.13221914	      0.94422312	     -0.07642199	     -7.34346676	      4.32054865	     -8.46890381	     -6.64471021	      9.87888657	      0.12960358	     -4.51861721	     -4.27147849	    -12.24275645	    -13.99686526	     21.41894536	     -6.25299891	    -12.37306989	      3.44561264	     -8.92487549
      0.06000000	      5.22145934	     -3.23859562	      5.74443043	      1.13222905	      0.94422750	     -0.07637908	     -7.34464429	      4.32112945	     -8.46931807	     -6.64617093	      9.87956808	      0.12963481	     -4.52090156	     -4.27340884	    -12.24108817	    -13.99881192	     21.41889340	     -6.25292055	    -12.36712600	      3.44384240	     -8.92880470
      0.07000000	      5.22240474	     -3.23907030	      5.73987929	      1.13223306	      0.94422926	     -0.07632920	     -7.34485538	      4.32316779	     -8.47014335	     -6.64724737	      9.88060432	      0.12982061	     -4.52282435	     -4.27564255	    -12.24063858	    -13.99919402	     21.41872082	     -6.25288642	    -12.36202538	      3.44160051	     -8.93858434
      0.08000000	      5.22072112	     -3.24001306	      5.74100379	      1.13222347	      0.94422848	     -0.07630028	     -7.34178942	      4.32519321	     -8.47285115	     -6.64860294	      9.88319180	      0.13090515	     -4.52153075	     -4.27808828	    -12.24708805	    -13.99496498	     21.41760907	     -6.25303807	    -12.35564546	      3.44520716	     -8.97094523
      0.09000000	      5.22075301	     -3.24072974	      5.73430647	      1.13220308	      0.94422951	     -0.07624841	     -7.34083285	      4.32734157	     -8.47547195	     -6.64650149	      9.88323695	      0.13115985	     -4.52036289	     -4.28016264	    -12.24603631	    -13.99665163	     21.41729369	     -6.25299227	    -12.35583678	      3.44252021	     -8.97482079
      0.10000000	      5.22027859	     -3.24167882	      5.72671973	      1.13217606	      0.94422852	     -0.07619795	     -7.33921044	      4.32948961	     -8.47850992	     -6.64312824	      9.88279113	      0.13143635	     -4.51810502	     -4.28198361	    -12.24611437	    -13.99808995	     21.41691007	     -6.25305224	    -12.35699178	      3.44049927	     -8.97995458
      0.11000000	      5.21915289	     -3.24263586	      5.71904291	      1.13214539	      0.94422600	     -0.07614750	     -7.33675704	      4.33148835	     -8.48178073	     -6.63779315	      9.88174005	      0.13171558	     -4.51483874	     -4.28390077	    -12.24711175	    -13.99964894	     21.41651626	     -6.25321575	    -12.35877749	      3.43872236	     -8.98570728
      0.12000000	      5.21721919	     -3.24356623	      5.71161045	      1.13211510	      0.94422192	     -0.07609717	     -7.33413004	      4.33353067	     -8.48502550	     -6.63024228	      9.87988526	      0.13198873	     -4.51033730	     -4.28589770	    -12.24891858	    -14.00173294	     21.41615109	     -6.25349208	    -12.36027247	      3.43697167	     -8.99189024
      0.13000000	      5.20197764	     -3.24599653	      5.71815118	      1.13211478	      0.94419536	     -0.07607028	     -7.33488037	      4.33965646	     -8.48933572	     -6.59186877	      9.85749389	      0.13359180	     -4.47939847	     -4.29429807	    -12.27095596	    -14.02633518	     21.41496261	     -6.25617635	    -12.33638230	      3.43926193	     -9.02047533
      0.14000000	      5.20068573	     -3.24735825	      5.71197551	      1.13208409	      0.94419333	     -0.07601703	     -7.33082924	      4.34259121	     -8.48938479	     -6.58871409	      9.85590242	      0.13374344	     -4.47583708	     -4.29702665	    -12.26890693	    -14.02752769	     21.41576235	     -6.25593388	    -12.34037357	      3.43716783	     -9.02205748
      0.15000000	      5.20112026	     -3.24668083	      5.71106572	      1.13207249	      0.94419342	     -0.07598446	     -7.33043038	      4.34291793	     -8.48929489	     -6.58815497	      9.85560245	      0.13376917	     -4.47503436	     -4.29776001	    -12.26865028	    -14.02771773	     21.41587906	     -6.25591819	    -12.34024967	      3.43736441	     -9.02226493
      0.16000000	      5.17780771	     -3.26588706	      5.70882244	      1.13204886	      0.94415437	     -0.07592330	     -7.31661787	      4.36738039	     -8.45078811	     -6.55549828	      9.81687820	      0.13710514	     -4.42433458	     -4.32453869	    -12.27021227	    -14.07282689	     21.42859640	     -6.25590298	    -12.31217555	      3.45390848	     -9.02552217
      0.17000000	      5.17807034	     -3.26509097	      5.70838289	      1.13204302	      0.94415529	     -0.07588982	     -7.31652812	      4.36743973	     -8.45085292	     -6.55556782	      9.81680699	      0.13713362	     -4.42377383	     -4.32547208	    -12.27028535	    -14.07242436	     21.42873190	     -6.25588718	    -12.31209950	      3.45393766	     -9.02570185
      0.18000000	      5.17734919	     -3.26702984	      5.70291620	      1.13204130	      0.94415520	     -0.07582883	     -7.31521015	      4.37110247	     -8.45112098	     -6.55597561	      9.81607166	      0.13753152	     -4.42292874	     -4.33061551	    -12.27072369	    -14.07302809	     21.42976124	     -6.25574393	    -12.31055620	      3.44941444	     -9.02788514
      0.19000000	      5.17758874	     -3.26628123	      5.70250666	      1.13203596	      0.94415531	     -0.07579607	     -7.31566195	      4.37126352	     -8.45103592	     -6.55631254	      9.81597577	      0.13759387	     -4.42224965	     -4.33162396	    -12.27076071	    -14.07295812	     21.42988378	     -6.25572790	    -12.30989999	      3.44966349	     -9.02793884
      0.20000000	      5.17739526	     -3.26941311	      5.69831966	      1.13205009	      0.94415279	     -0.07573650	     -7.31642255	      4.37705625	     -8.44977608	     -6.55714622	      9.81521016	      0.13846759	     -4.42096395	     -4.33877066	    -12.27095602	    -14.07780627	     21.43121019	     -6.25545248	    -12.30234899	      3.44623045	     -9.02881764
      0.21000000	      5.17751879	     -3.26905891	      5.69813462	      1.13204120	      0.94414998	     -0.07570933	     -7.31688016	      4.37693879	     -8.44960986	     -6.55711735	      9.81517857	      0.13856640	     -4.41988047	     -4.34009168	    -12.27097956	    -14.07783710	     21.43138620	     -6.25541362	    -12.30174295	      3.44657891	     -9.02874280
      0.22000000	      5.15145981	     -3.29940934	      5.70867569	      1.13203864	      0.94409301	     -0.07566643	     -7.30508329	      4.41516208	     -8.42688319	     -6.51820719	      9.81438092	      0.14964887	     -4.36103539	     -4.38313229	    -12.28118479	    -14.12938961	     21.45457382	     -6.24819319	    -12.26205233	      3.47563719	     -9.02279837
      0.23000000	      5.15195429	     -3.29878407	      5.70813211	      1.13202862	      0.94408883	     -0.07563960	     -7.30533845	      4.41523065	     -8.42667789	     -6.51890488	      9.81411171	      0.14971366	     -4.36030864	     -4.38387721	    -12.28112222	    -14.12944494	     21.45491027	     -6.24804768	    -12.26134340	      3.47538943	     -9.02329996
      0.24000000	      5.15234414	     -3.29906467	      5.70573799	      1.13203582	      0.94408174	     -0.07559559	     -7.30585637	      4.41719589	     -8.42534888	     -6.52087604	      9.81312029	      0.15017967	     -4.35933830	     -4.38745910	    -12.28030298	    -14.13301104	     21.45708055	     -6.24705541	    -12.25610527	      3.47122342	     -9.02583288
